<svg id="Layer_1" data-name="Layer 1" xmlns="http://www.w3.org/2000/svg" viewBox="0 0 191.55 66"><defs><style>.cls-1{fill:#fff;}</style></defs><title>Union Logo_White</title><path class="cls-1" d="M32.63,21.83a.92.92,0,0,0,.5.76,1.66,1.66,0,0,0,.94.16,2.11,2.11,0,0,0,1.37-.62,1.66,1.66,0,0,0,.46-1.39L35.83,20a16.55,16.55,0,0,0-2,.52Q32.56,21,32.63,21.83Z" transform="translate(-4.22 -4)"/><path class="cls-1" d="M54.36,26.93a25.12,25.12,0,1,0-22.83,27.2A25.11,25.11,0,0,0,54.36,26.93ZM40.25,15.63l.07.85a2.33,2.33,0,0,1,.77-.79,2.71,2.71,0,0,1,1.24-.4,2.62,2.62,0,0,1,2.05.53,2.86,2.86,0,0,1,.85,2l.43,4.91-1.42.13L43.84,18a1.69,1.69,0,0,0-.45-1.13,1.36,1.36,0,0,0-1.15-.3,1.88,1.88,0,0,0-1.33.62,1.77,1.77,0,0,0-.4,1.4l.39,4.51-1.4.12-.66-7.49ZM35.7,18.41a1.33,1.33,0,0,0-.54-1.09,2.13,2.13,0,0,0-1.25-.16,1.37,1.37,0,0,0-1,.47,1.71,1.71,0,0,0-.24,1.17l-1.44,0a3.87,3.87,0,0,1,.72-2A2.73,2.73,0,0,1,33.82,16a3.91,3.91,0,0,1,2.15.31,2,2,0,0,1,1.09,1.77l.3,3.37a1.32,1.32,0,0,0,.13.53c.06.13.19.18.39.17l.48-.05.1,1.12-.39.11a2.48,2.48,0,0,1-.49.11,1.18,1.18,0,0,1-1.36-.83,3.51,3.51,0,0,1-2.47,1.29A2.55,2.55,0,0,1,32,23.52a1.88,1.88,0,0,1-.9-1.48,2.12,2.12,0,0,1,.69-1.86,4.48,4.48,0,0,1,1.86-.89A13.44,13.44,0,0,1,35.74,19Zm-8.51-1.56.53,6.06,3-.26.12,1.27-4.36.38L25.82,17Zm-7.66,1.62A3.23,3.23,0,0,1,22,17.09a3,3,0,0,1,2,.44,2.88,2.88,0,0,1,1.16,1.64l-1.29.44a1.61,1.61,0,0,0-.63-.95,1.57,1.57,0,0,0-1.12-.3,1.77,1.77,0,0,0-1.5.94,3.13,3.13,0,0,0-.33,1.83,3.07,3.07,0,0,0,.64,1.74,1.81,1.81,0,0,0,1.66.67,1.59,1.59,0,0,0,1.07-.5,2.33,2.33,0,0,0,.56-1.12l1.32.46a3.77,3.77,0,0,1-1,1.72,3,3,0,0,1-1.81.71A3.23,3.23,0,0,1,20,24a4.16,4.16,0,0,1-1.17-2.7A4,4,0,0,1,19.53,18.47ZM12,23.29l-.44-5.07,1.37-.11.41,4.71a1.42,1.42,0,0,0,.49,1.08,1.8,1.8,0,0,0,1.23.24,1.77,1.77,0,0,0,1.14-.45,1.4,1.4,0,0,0,.29-1.15L16,17.83l1.38-.12.45,5.07a2.18,2.18,0,0,1-.74,1.93,3.44,3.44,0,0,1-2,.76,3.43,3.43,0,0,1-2.09-.4A2.17,2.17,0,0,1,12,23.29ZM25.84,41.86a8.45,8.45,0,0,1-5.18,2,14.92,14.92,0,0,1-3.11-.08,7.46,7.46,0,0,1-2.42-.61A3.3,3.3,0,0,1,14,41.7a7.26,7.26,0,0,1-.65-2.36,1.31,1.31,0,0,1,.16-.86.87.87,0,0,1,.69-.43,1.12,1.12,0,0,1,.87.37,16.86,16.86,0,0,1,1.27,1.51,3.08,3.08,0,0,0,1.44,1,4.61,4.61,0,0,0,1.94.26,2.66,2.66,0,0,0,1.34-.44.91.91,0,0,0,.46-.85A1,1,0,0,0,21,39.1a4,4,0,0,0-1.39-.5,17.83,17.83,0,0,1-2.58-.73,7.41,7.41,0,0,1-1.69-.94,4.78,4.78,0,0,1-2.13-3.47,4.53,4.53,0,0,1,.3-2,4.92,4.92,0,0,1,1.18-1.76,7.11,7.11,0,0,1,4.55-2,11.52,11.52,0,0,1,3.14.32,1.3,1.3,0,0,0,.37,0,2.85,2.85,0,0,0,.66-.26,1,1,0,0,1,.39-.1c.51,0,1.08.31,1.72,1.07A4,4,0,0,1,26.61,31a1.55,1.55,0,0,1-.28,1.11,1.18,1.18,0,0,1-.9.52,1.39,1.39,0,0,1-.76-.11,13.57,13.57,0,0,1-1.35-1,4,4,0,0,0-2.81-1,1.55,1.55,0,0,0-1,.4,1,1,0,0,0-.32.84c.06.66.69,1.11,1.88,1.35a23.58,23.58,0,0,1,3.12.75,4.49,4.49,0,0,1,3.28,3.92A4.83,4.83,0,0,1,25.84,41.86ZM45.91,27.23a3.78,3.78,0,0,1-.67.55,1.22,1.22,0,0,0-.63.8,25.84,25.84,0,0,0,.15,2.94L45,34.31a11.82,11.82,0,0,1-.06,3.61,5.49,5.49,0,0,1-3.29,3.52,11,11,0,0,1-3.72,1,9.21,9.21,0,0,1-6-1.24,4.52,4.52,0,0,1-1.66-1.86,10.15,10.15,0,0,1-.7-3.23c-.05-.56-.11-1.47-.18-2.75-.06-.9-.1-1.5-.13-1.78a4.1,4.1,0,0,0-.25-1.3,1.53,1.53,0,0,0-.69-.63,1.39,1.39,0,0,1-.85-1,1.05,1.05,0,0,1,.32-.82,2.18,2.18,0,0,1,1-.56,15.34,15.34,0,0,1,3-.51,14.85,14.85,0,0,1,3.15,0c.83.11,1.28.49,1.34,1.14a1,1,0,0,1-.29.8,5,5,0,0,1-.66.41.89.89,0,0,0-.44.63,4.84,4.84,0,0,0,0,1.41c.06.66.15,2.09.28,4.3a3.71,3.71,0,0,0,1.33,2.9,3.31,3.31,0,0,0,2.42.64,3.84,3.84,0,0,0,1.63-.48,2.68,2.68,0,0,0,1.06-1,2.6,2.6,0,0,0,.33-1,8.48,8.48,0,0,0,0-1.51l-.22-2.51A30.56,30.56,0,0,0,41.13,29a1.16,1.16,0,0,0-.8-.71,3.13,3.13,0,0,1-.86-.41.79.79,0,0,1-.26-.52,1.05,1.05,0,0,1,.73-1.07,8,8,0,0,1,2.59-.55,7.81,7.81,0,0,1,2.6.09,1.05,1.05,0,0,1,.88.91A.78.78,0,0,1,45.91,27.23Z" transform="translate(-4.22 -4)"/><path class="cls-1" d="M65.59,19.8A6.16,6.16,0,0,0,68,19.37a2,2,0,0,0,1.39-1.83c0-1-1-1.7-2.85-2.17Q61.66,14.13,61.22,14a4.36,4.36,0,0,1-2.85-4.19,4.9,4.9,0,0,1,2.2-4.21,8,8,0,0,1,4.75-1.39,8.77,8.77,0,0,1,7.43,3.59L70,9.82a4.35,4.35,0,0,0-1.89-1.95,5.92,5.92,0,0,0-2.79-.65,5.71,5.71,0,0,0-2.17.37,1.75,1.75,0,0,0-1.23,1.65c0,.95.94,1.65,2.85,2.1a45.91,45.91,0,0,1,5.32,1.43A4.45,4.45,0,0,1,72.93,17a5,5,0,0,1-2.5,4.59,10.08,10.08,0,0,1-5.34,1.3,10.33,10.33,0,0,1-4.39-1,8.15,8.15,0,0,1-3.35-2.79l2.82-2a5.9,5.9,0,0,0,2.32,2,7,7,0,0,0,3.1.67" transform="translate(-4.22 -4)"/><polygon class="cls-1" points="69.64 3.72 69.64 0.62 82.78 0.62 82.78 3.72 77.85 3.72 77.85 18.5 74.47 18.5 74.47 3.72 69.64 3.72"/><path class="cls-1" d="M96,22.93a8.31,8.31,0,0,1-5-1.43A5.24,5.24,0,0,1,88.8,17V4.62h3.34V16.11a3.46,3.46,0,0,0,1,2.73,4.32,4.32,0,0,0,2.91.84,4.22,4.22,0,0,0,2.87-.84,3.49,3.49,0,0,0,1-2.73V4.62h3.37V17A5.27,5.27,0,0,1,101,21.5a8.24,8.24,0,0,1-5,1.43" transform="translate(-4.22 -4)"/><path class="cls-1" d="M112.8,4.62a8.76,8.76,0,0,1,6.54,2.32,9.07,9.07,0,0,1,2.26,6.6,9.77,9.77,0,0,1-1.95,6.51q-2.07,2.44-6.23,2.44h-6.9V4.62ZM113,19.4c1.94,0,3.3-.51,4.09-1.52a7.06,7.06,0,0,0,1-4.34,6.4,6.4,0,0,0-1.21-4.21,4.92,4.92,0,0,0-4-1.61h-3V19.4Z" transform="translate(-4.22 -4)"/><path class="cls-1" d="M137.37,16.3l3.41.46a8.22,8.22,0,0,1-3,4.7,8.76,8.76,0,0,1-5.38,1.66A8.25,8.25,0,0,1,126,20.36a9.63,9.63,0,0,1-2.35-6.66,10.5,10.5,0,0,1,2.13-7A8.17,8.17,0,0,1,132.38,4,7.57,7.57,0,0,1,139,7.1a12.38,12.38,0,0,1,1.92,7.31l-13.63.06a6.42,6.42,0,0,0,1.3,4.15,4.78,4.78,0,0,0,3.91,1.74,5.11,5.11,0,0,0,3.3-1,4.55,4.55,0,0,0,1.56-3M127.3,11.65h10a6.39,6.39,0,0,0-1.62-3.5,4.76,4.76,0,0,0-3.57-1.36,4.2,4.2,0,0,0-3.28,1.39,6.16,6.16,0,0,0-1.51,3.47" transform="translate(-4.22 -4)"/><path class="cls-1" d="M147.59,4.44V6.85h-.25a5.74,5.74,0,0,1,2.27-2.11A6.75,6.75,0,0,1,152.7,4a6.39,6.39,0,0,1,4.85,1.72,7,7,0,0,1,1.63,5v12h-3.44l0-11.71a4.22,4.22,0,0,0-.84-2.85,3.42,3.42,0,0,0-2.72-1,4.64,4.64,0,0,0-3.35,1.21,4.38,4.38,0,0,0-1.27,3.31v11h-3.44V4.44Z" transform="translate(-4.22 -4)"/><polygon class="cls-1" points="157.37 3.72 157.37 0.62 170.51 0.62 170.51 3.72 165.58 3.72 165.58 18.5 162.21 18.5 162.21 3.72 157.37 3.72"/><path class="cls-1" d="M183.13,19.8a6.14,6.14,0,0,0,2.41-.43,2,2,0,0,0,1.4-1.83c0-1-.95-1.7-2.85-2.17-3.27-.83-5-1.3-5.33-1.42a4.36,4.36,0,0,1-2.85-4.19,4.88,4.88,0,0,1,2.2-4.21,8,8,0,0,1,4.74-1.39,8.76,8.76,0,0,1,7.43,3.59l-2.79,2.07a4.35,4.35,0,0,0-1.89-1.95,5.92,5.92,0,0,0-2.79-.65,5.66,5.66,0,0,0-2.16.37,1.74,1.74,0,0,0-1.24,1.65q0,1.42,2.85,2.1a45.91,45.91,0,0,1,5.32,1.43A4.44,4.44,0,0,1,190.47,17,5.05,5.05,0,0,1,188,21.63a10.07,10.07,0,0,1-5.33,1.3,10.34,10.34,0,0,1-4.4-1,8.22,8.22,0,0,1-3.35-2.79l2.82-2a5.86,5.86,0,0,0,2.33,2,7,7,0,0,0,3.1.67" transform="translate(-4.22 -4)"/><path class="cls-1" d="M83.74,38.33v4.35a18.49,18.49,0,0,1-.59,5.58c-.84,2.3-2.7,4-5.56,5a16.94,16.94,0,0,1-5.88,1q-5.73,0-9.17-2.73a7,7,0,0,1-2.32-3.1,15.58,15.58,0,0,1-.64-5.1c0-.86,0-2.29.09-4.28,0-1.4,0-2.33,0-2.78a6.39,6.39,0,0,0-.22-2.05,2.46,2.46,0,0,0-1-1.07,2.11,2.11,0,0,1-1.18-1.71,1.62,1.62,0,0,1,.6-1.23,3.23,3.23,0,0,1,1.58-.73,24,24,0,0,1,4.63-.39,22.94,22.94,0,0,1,4.89.44c1.27.29,1.91.93,1.91,1.95a1.45,1.45,0,0,1-.56,1.19,7.49,7.49,0,0,1-1.07.55,1.36,1.36,0,0,0-.77.91,8,8,0,0,0-.21,2.18c0,1,0,3.27-.14,6.7a5.74,5.74,0,0,0,1.66,4.67A5.18,5.18,0,0,0,73.54,49a6.24,6.24,0,0,0,2.59-.52A4,4,0,0,0,77.89,47a4.21,4.21,0,0,0,.66-1.55,11.91,11.91,0,0,0,.18-2.34V39.2a47.17,47.17,0,0,0-.26-5.28,1.82,1.82,0,0,0-1.15-1.23A4.57,4.57,0,0,1,76.05,32a1.17,1.17,0,0,1-.33-.84A1.64,1.64,0,0,1,77,29.55a12.25,12.25,0,0,1,4.09-.49,12.11,12.11,0,0,1,4,.48,1.62,1.62,0,0,1,1.23,1.53,1.18,1.18,0,0,1-.21.77,5.12,5.12,0,0,1-1.12.77,1.92,1.92,0,0,0-1.08,1.15,39.57,39.57,0,0,0-.17,4.57" transform="translate(-4.22 -4)"/><path class="cls-1" d="M97.34,30.27,106.22,38a3.62,3.62,0,0,0,1.8,1.09q.93,0,.93-2a11.36,11.36,0,0,0-.27-3.06,2,2,0,0,0-1.12-1.23,2.68,2.68,0,0,1-1-.73,1.6,1.6,0,0,1-.29-1c0-1,.69-1.64,2-1.92a16.12,16.12,0,0,1,2.93-.18,14.75,14.75,0,0,1,3.73.32c1.09.33,1.64,1,1.64,1.89A1.89,1.89,0,0,1,115.3,33a2.62,2.62,0,0,0-.73.41,1.35,1.35,0,0,0-.34.53,13.82,13.82,0,0,0-.5,4.46v5.81c0,.89,0,2.11,0,3.66a18.24,18.24,0,0,1-.38,4.53c-.32,1.15-.9,1.73-1.74,1.73a1.85,1.85,0,0,1-1-.24,9.2,9.2,0,0,1-1.33-1.07L98.77,43.36a3.09,3.09,0,0,0-1.84-1c-.72,0-1.08,1-1.08,3a14,14,0,0,0,.27,3.39,2.17,2.17,0,0,0,1.14,1.34,1.75,1.75,0,0,1,1.19,1.53q0,2.48-5.33,2.48a8.94,8.94,0,0,1-3.74-.63,2,2,0,0,1-1.33-1.8,1.42,1.42,0,0,1,.25-.9A4.61,4.61,0,0,1,89.43,50a2.27,2.27,0,0,0,1-1.76,52.47,52.47,0,0,0,.31-6.62,29.69,29.69,0,0,0-.54-6.7,2.9,2.9,0,0,0-.5-1.14,2.77,2.77,0,0,0-1-.71,3.49,3.49,0,0,1-1.11-.77,1.36,1.36,0,0,1-.31-.91q0-1.71,2.94-2.16A30,30,0,0,1,93.72,29a6.92,6.92,0,0,1,2.08.22,4.93,4.93,0,0,1,1.54,1" transform="translate(-4.22 -4)"/><path class="cls-1" d="M125.48,29a19.53,19.53,0,0,1,3.83.36c1.62.32,2.43,1,2.43,2.05a1.09,1.09,0,0,1-.24.77,5.23,5.23,0,0,1-1.22.76,2.3,2.3,0,0,0-1.08,1.8,35,35,0,0,0-.26,5.42,58.3,58.3,0,0,0,.34,8.43,1.76,1.76,0,0,0,.38.8,3.22,3.22,0,0,0,.9.59,1.71,1.71,0,0,1,1.18,1.56c0,1-.73,1.6-2.18,2a24.88,24.88,0,0,1-5.76.57q-5.8,0-5.81-2.21,0-.81,1.14-1.5a2.08,2.08,0,0,0,1-1.46,66.3,66.3,0,0,0,.34-8.63,22.16,22.16,0,0,0-.46-5.85,2.63,2.63,0,0,0-1.19-1.32,4.18,4.18,0,0,1-1-.8,1.29,1.29,0,0,1-.25-.82,1.36,1.36,0,0,1,.74-1.22,8.21,8.21,0,0,1,2.61-.82,23.45,23.45,0,0,1,4.51-.44" transform="translate(-4.22 -4)"/><path class="cls-1" d="M146.64,28.91a12.84,12.84,0,0,1,8,2.62,13.56,13.56,0,0,1,3.76,4.68,12.76,12.76,0,0,1,1.41,5.7A11.42,11.42,0,0,1,157,49.44a13.09,13.09,0,0,1-6.16,4,15.16,15.16,0,0,1-4.68.75A14.11,14.11,0,0,1,140.3,53,12,12,0,0,1,135,48.26a12.55,12.55,0,0,1-1.87-6.69,12.17,12.17,0,0,1,2.41-7.48,12.37,12.37,0,0,1,5.76-4.25,14.89,14.89,0,0,1,5.38-.93M145,34a2.7,2.7,0,0,0-2.37,1.34,4.11,4.11,0,0,0-.68,2.37,15.9,15.9,0,0,0,.82,4.66,21.11,21.11,0,0,0,2.07,4.7,4.41,4.41,0,0,0,1.36,1.39,3,3,0,0,0,1.65.52A2.67,2.67,0,0,0,150,48a4,4,0,0,0,.83-2.67,17.6,17.6,0,0,0-.69-4.66,16.07,16.07,0,0,0-1.8-4.26,5.92,5.92,0,0,0-1.57-1.71A3.38,3.38,0,0,0,145,34" transform="translate(-4.22 -4)"/><path class="cls-1" d="M171.18,30.27,180.05,38a3.67,3.67,0,0,0,1.81,1.09c.61,0,.92-.66.92-2a11.93,11.93,0,0,0-.26-3.06,2,2,0,0,0-1.13-1.23,2.68,2.68,0,0,1-1-.73,1.59,1.59,0,0,1-.28-1c0-1,.68-1.64,2.05-1.92A16,16,0,0,1,185.1,29a14.69,14.69,0,0,1,3.73.32c1.09.33,1.64,1,1.64,1.89A1.89,1.89,0,0,1,189.13,33a2.62,2.62,0,0,0-.73.41,1.35,1.35,0,0,0-.34.53,13.82,13.82,0,0,0-.5,4.46v5.81c0,.89,0,2.11,0,3.66a17.76,17.76,0,0,1-.38,4.53c-.32,1.15-.9,1.73-1.74,1.73a1.85,1.85,0,0,1-1-.24,9.8,9.8,0,0,1-1.33-1.07L172.6,43.36a3.1,3.1,0,0,0-1.83-1c-.73,0-1.09,1-1.09,3a13.37,13.37,0,0,0,.28,3.39,2.15,2.15,0,0,0,1.13,1.34,1.75,1.75,0,0,1,1.19,1.53q0,2.48-5.33,2.48a9,9,0,0,1-3.74-.63,2,2,0,0,1-1.32-1.8,1.36,1.36,0,0,1,.25-.9,4.5,4.5,0,0,1,1.12-.83,2.27,2.27,0,0,0,1-1.76,54.87,54.87,0,0,0,.3-6.62,29.69,29.69,0,0,0-.54-6.7,3.06,3.06,0,0,0-.49-1.14,3,3,0,0,0-1-.71,3.56,3.56,0,0,1-1.12-.77,1.36,1.36,0,0,1-.31-.91q0-1.71,2.94-2.16a30.08,30.08,0,0,1,3.5-.14,6.89,6.89,0,0,1,2.07.22,5.07,5.07,0,0,1,1.55,1" transform="translate(-4.22 -4)"/><path class="cls-1" d="M17.08,65.49,16.41,67a2.7,2.7,0,0,1-.27.51.34.34,0,0,1-.24.13.28.28,0,0,1-.22-.11A3.24,3.24,0,0,1,15.4,67c-.14-.28-.27-.53-.36-.75l-.74-1.65c-.1-.24-.21-.35-.32-.35s-.18.1-.19.3c0,.43,0,.84,0,1.21a3.38,3.38,0,0,0,.06.79.39.39,0,0,0,.1.18l.35.2a.33.33,0,0,1,.18.32c0,.42-.53.63-1.6.63-.9,0-1.35-.2-1.35-.61a.37.37,0,0,1,.07-.23,2.17,2.17,0,0,1,.36-.2.52.52,0,0,0,.25-.23,2.44,2.44,0,0,0,.11-.57c0-.29.06-.78.09-1.46s.05-1.26.05-1.74a3.65,3.65,0,0,0-.14-1.23.45.45,0,0,0-.11-.17l-.25-.15a.56.56,0,0,1-.39-.49.54.54,0,0,1,.14-.35.76.76,0,0,1,.4-.23,3.63,3.63,0,0,1,.65-.12,5,5,0,0,1,.7-.06,2.9,2.9,0,0,1,1,.12.49.49,0,0,1,.23.15,1.69,1.69,0,0,1,.24.39l1.16,2.13a2.56,2.56,0,0,0,.26.43.24.24,0,0,0,.2.08.3.3,0,0,0,.2-.08,1,1,0,0,0,.2-.32l.79-1.53.19-.38a1.88,1.88,0,0,1,.54-.74,2.29,2.29,0,0,1,1.24-.24c1,0,1.58.24,1.58.71a.45.45,0,0,1-.06.26.88.88,0,0,1-.26.24.9.9,0,0,0-.32.57,12.15,12.15,0,0,0-.13,1.87,20,20,0,0,0,.14,2.49.78.78,0,0,0,.1.36,2.12,2.12,0,0,0,.36.28.4.4,0,0,1,.2.36c0,.26-.17.44-.52.55a2.42,2.42,0,0,1-.56.12c-.2,0-.5,0-.91,0a5.31,5.31,0,0,1-1.4-.14c-.34-.1-.52-.27-.52-.51a.38.38,0,0,1,.07-.22,2.52,2.52,0,0,1,.35-.32.7.7,0,0,0,.19-.45A7.27,7.27,0,0,0,18,65.15a3.18,3.18,0,0,0,0-.59.18.18,0,0,0-.18-.14.37.37,0,0,0-.3.21,7.66,7.66,0,0,0-.44.86" transform="translate(-4.22 -4)"/><path class="cls-1" d="M24.83,62.24a2.68,2.68,0,0,1,1.64.49,1.35,1.35,0,0,1,.5.6,2.33,2.33,0,0,1,.14.93v.83a3.26,3.26,0,0,0,.12,1.12c.05.08.08.13.12.15a.63.63,0,0,0,.24.07c.12,0,.18.09.18.23a1,1,0,0,1-.22.56,2,2,0,0,1-.55.49,1.79,1.79,0,0,1-.88.24,1.19,1.19,0,0,1-.93-.4A.3.3,0,0,0,25,67.4a.56.56,0,0,0-.3.14A2.1,2.1,0,0,1,23.4,68a2.13,2.13,0,0,1-1.18-.31,1.51,1.51,0,0,1-.46-.54,1.45,1.45,0,0,1-.18-.69,1.4,1.4,0,0,1,.47-1,3.07,3.07,0,0,1,2.18-.71.83.83,0,0,0,.41-.06c.06,0,.08-.15.08-.3a2.24,2.24,0,0,0-.12-.86.41.41,0,0,0-.4-.26.47.47,0,0,0-.3.1,2.27,2.27,0,0,0-.32.37,1.34,1.34,0,0,1-1,.7.6.6,0,0,1-.44-.16.54.54,0,0,1-.18-.42.89.89,0,0,1,.22-.54,1.84,1.84,0,0,1,.58-.46,4.42,4.42,0,0,1,2.11-.54m-.38,3.23a.56.56,0,0,0-.42.2.68.68,0,0,0-.18.48.73.73,0,0,0,.12.43.42.42,0,0,0,.34.17c.3,0,.45-.26.45-.76a.94.94,0,0,0-.06-.41.27.27,0,0,0-.25-.11" transform="translate(-4.22 -4)"/><path class="cls-1" d="M31.35,60.46,31.3,62.2c0,.18,0,.44,0,.77s0,.6,0,.67.11.23.24.23a1.1,1.1,0,0,0,.51-.22c.23-.14.35-.25.35-.32a.53.53,0,0,0-.12-.22.32.32,0,0,1-.09-.22c0-.41.49-.61,1.48-.61a3.84,3.84,0,0,1,1.21.16.63.63,0,0,1,.3.21.51.51,0,0,1,.12.32.37.37,0,0,1-.24.36l-.33.07a1.91,1.91,0,0,0-.63.3c-.26.18-.39.3-.39.38a3.78,3.78,0,0,0,.47.73c.31.44.61.82.88,1.14a4.14,4.14,0,0,0,.41.45,1.82,1.82,0,0,0,.41.27c.26.15.4.31.4.5a.54.54,0,0,1-.25.46,1.29,1.29,0,0,1-.7.17H33.52a.65.65,0,0,1-.52-.25l-.93-1.19-.45-.56a.21.21,0,0,0-.14-.09s-.07,0-.08.1a1.67,1.67,0,0,0,0,.39.84.84,0,0,0,.06.36,1,1,0,0,0,.25.27.43.43,0,0,1,.15.35.59.59,0,0,1-.41.56,3.71,3.71,0,0,1-1.36.18,6.8,6.8,0,0,1-1.45-.1.67.67,0,0,1-.33-.22.59.59,0,0,1-.13-.36.44.44,0,0,1,.23-.37,1,1,0,0,0,.26-.2.41.41,0,0,0,.09-.21,14.7,14.7,0,0,0,.12-2.41V62.83a3.09,3.09,0,0,0-.06-.79.34.34,0,0,0-.32-.21c-.3,0-.46-.17-.46-.38a.51.51,0,0,1,.21-.39,2.26,2.26,0,0,1,.65-.33A7.13,7.13,0,0,1,31,60.19c.21,0,.31.09.31.27" transform="translate(-4.22 -4)"/><path class="cls-1" d="M39.6,62.63v3.24a1.93,1.93,0,0,0,.06.56.74.74,0,0,0,.29.33,1,1,0,0,1,.23.21.38.38,0,0,1,.06.22q0,.72-1.83.72a5.84,5.84,0,0,1-1.55-.16.61.61,0,0,1-.32-.19.47.47,0,0,1-.12-.32.32.32,0,0,1,.07-.23,1.32,1.32,0,0,1,.31-.27.72.72,0,0,0,.24-.42,3.72,3.72,0,0,0,.07-.86c0-.13,0-.36,0-.69s0-.54,0-.59a.45.45,0,0,0-.31-.35.48.48,0,0,1-.34-.45c0-.23.15-.41.45-.52a9.59,9.59,0,0,1,1.34-.41,5.28,5.28,0,0,1,1.1-.17c.2,0,.31.12.31.35m-1.11-2.44a1.44,1.44,0,0,1,.77.18.55.55,0,0,1,.28.49.75.75,0,0,1-.43.68,3.24,3.24,0,0,1-1.64.39,1.25,1.25,0,0,1-.65-.15.64.64,0,0,1-.32-.56q0-.48.69-.75a3.43,3.43,0,0,1,1.3-.28" transform="translate(-4.22 -4)"/><path class="cls-1" d="M47.33,64.3l.07,2a.74.74,0,0,0,.08.32,2.7,2.7,0,0,0,.34.41.37.37,0,0,1,.08.25c0,.25-.15.42-.44.52a6,6,0,0,1-1.57.14,3.12,3.12,0,0,1-1.09-.13.48.48,0,0,1-.33-.46.24.24,0,0,1,0-.16,1.79,1.79,0,0,1,.22-.26A3,3,0,0,0,45,65.34a2.72,2.72,0,0,0-.18-1.14.52.52,0,0,0-.53-.29.53.53,0,0,0-.51.24,1.78,1.78,0,0,0-.14.86v1.11a1.53,1.53,0,0,0,0,.45,3.59,3.59,0,0,0,.27.48.35.35,0,0,1,.07.23c0,.21-.16.38-.46.48a4.91,4.91,0,0,1-1.43.16c-1,0-1.55-.22-1.55-.64a.36.36,0,0,1,0-.21,1,1,0,0,1,.23-.2.51.51,0,0,0,.18-.24,5.14,5.14,0,0,0,.07-.67c0-.42,0-.87,0-1.33a1.37,1.37,0,0,0-.06-.51,1,1,0,0,0-.34-.29.42.42,0,0,1-.23-.37.44.44,0,0,1,.19-.37,3.87,3.87,0,0,1,.8-.35,10,10,0,0,1,1-.32,3.31,3.31,0,0,1,.68-.14.36.36,0,0,1,.28.13.4.4,0,0,1,.12.29,1.13,1.13,0,0,1,0,.14v.08c0,.17.07.26.22.26s.19-.07.29-.21a1.58,1.58,0,0,1,1.39-.69,1.93,1.93,0,0,1,1.2.37,1.35,1.35,0,0,1,.49.61,3.43,3.43,0,0,1,.18,1" transform="translate(-4.22 -4)"/><path class="cls-1" d="M54.15,61.94a.3.3,0,0,1,.24.17.57.57,0,0,1,.11.36,1.23,1.23,0,0,1-.14.52,1.43,1.43,0,0,1-.34.47c-.09.07-.13.13-.13.17a1.13,1.13,0,0,0,0,.14,1.65,1.65,0,0,1,0,.21,1.55,1.55,0,0,1-.45,1.12,2.83,2.83,0,0,1-1,.62,4.2,4.2,0,0,1-1.4.22l-.36,0a1,1,0,0,0-.22,0c-.2,0-.29.1-.29.3a.34.34,0,0,0,.19.3,1.07,1.07,0,0,0,.52.1,5.25,5.25,0,0,0,.66-.06,11.37,11.37,0,0,1,1.35-.12,2,2,0,0,1,1,.21,1.24,1.24,0,0,1,.63,1.12,1.73,1.73,0,0,1-.41,1.09,2.76,2.76,0,0,1-1.44.92A5.69,5.69,0,0,1,51,70a4.57,4.57,0,0,1-2-.38,1.47,1.47,0,0,1-.57-.47,1,1,0,0,1-.22-.6.72.72,0,0,1,.12-.4.7.7,0,0,1,.31-.26c.11,0,.16-.1.16-.15s0-.1-.14-.18a1,1,0,0,1-.44-.77.93.93,0,0,1,.21-.55,1.52,1.52,0,0,1,.54-.44c.08,0,.13-.09.13-.14s-.06-.13-.17-.23a1.64,1.64,0,0,1-.57-1.24,1.41,1.41,0,0,1,.2-.71,1.85,1.85,0,0,1,.57-.58,3.57,3.57,0,0,1,2-.59,5.14,5.14,0,0,1,1,.11,4,4,0,0,0,.69.1A1.85,1.85,0,0,0,53.94,62a.48.48,0,0,1,.21-.1m-4.24,6.23c-.09,0-.14,0-.14.16a.62.62,0,0,0,.36.54,1.87,1.87,0,0,0,.92.2,2.2,2.2,0,0,0,.86-.14.47.47,0,0,0,.31-.41.29.29,0,0,0-.12-.24.43.43,0,0,0-.29-.1l-.26,0a3.73,3.73,0,0,1-.69,0l-.55,0-.32,0h-.08m1.21-5.07a.54.54,0,0,0-.44.21.84.84,0,0,0-.18.56,2.17,2.17,0,0,0,.19,1,.54.54,0,0,0,.48.36.56.56,0,0,0,.47-.23.93.93,0,0,0,.17-.6,1.85,1.85,0,0,0-.18-.93.57.57,0,0,0-.51-.34" transform="translate(-4.22 -4)"/><path class="cls-1" d="M60.86,63.38v1.79c0,.79,0,1.25,0,1.38a.42.42,0,0,0,.28.3,1,1,0,0,1,.27.17.29.29,0,0,1,.07.22.46.46,0,0,1-.13.33.7.7,0,0,1-.35.22,5.3,5.3,0,0,1-1.35.12,4.91,4.91,0,0,1-1.52-.16.75.75,0,0,1-.32-.23.47.47,0,0,1-.13-.32.24.24,0,0,1,.07-.2.87.87,0,0,1,.3-.18q.22-.09.27-.51a18.14,18.14,0,0,0,.09-2.07,11.88,11.88,0,0,0-.08-1.75.83.83,0,0,0-.39-.58,1,1,0,0,1-.32-.25.48.48,0,0,1-.09-.29.6.6,0,0,1,.26-.48,2.78,2.78,0,0,1,.84-.38,8.24,8.24,0,0,1,1-.22,6.25,6.25,0,0,1,.89-.11c.29,0,.44.18.44.55a7.6,7.6,0,0,1-.06.82c0,.66-.07,1.27-.08,1.83" transform="translate(-4.22 -4)"/><path class="cls-1" d="M65,62.63v3.24a1.58,1.58,0,0,0,.07.56.78.78,0,0,0,.28.33.81.81,0,0,1,.23.21.38.38,0,0,1,.06.22c0,.48-.61.72-1.82.72a5.92,5.92,0,0,1-1.56-.16.58.58,0,0,1-.31-.19.47.47,0,0,1-.12-.32.37.37,0,0,1,.06-.23,1.32,1.32,0,0,1,.31-.27.73.73,0,0,0,.25-.42,4.38,4.38,0,0,0,.07-.86q0-.19,0-.69c0-.34,0-.54,0-.59a.49.49,0,0,0-.31-.35.48.48,0,0,1-.35-.45c0-.23.15-.41.45-.52a10,10,0,0,1,1.34-.41,5.28,5.28,0,0,1,1.1-.17c.21,0,.31.12.31.35m-1.11-2.44a1.39,1.39,0,0,1,.77.18.54.54,0,0,1,.29.49.75.75,0,0,1-.43.68,3.25,3.25,0,0,1-1.65.39,1.21,1.21,0,0,1-.64-.15.63.63,0,0,1-.33-.56q0-.48.69-.75a3.47,3.47,0,0,1,1.3-.28" transform="translate(-4.22 -4)"/><path class="cls-1" d="M69.2,63.28h.69a.49.49,0,0,1,.25,0,.21.21,0,0,1,.07.18l0,.66c0,.14,0,.22-.06.26a.35.35,0,0,1-.22,0h-.35a.33.33,0,0,0-.32.16,1.25,1.25,0,0,0-.09.58,3.15,3.15,0,0,0,.14,1,.5.5,0,0,0,.14.25.9.9,0,0,0,.31.14c.33.1.49.28.49.54s-.19.48-.57.61a6.9,6.9,0,0,1-1.87.18c-1.3,0-1.94-.26-1.94-.77a.39.39,0,0,1,.08-.28,1.07,1.07,0,0,1,.35-.21.59.59,0,0,0,.36-.49,7.09,7.09,0,0,0,.1-1.17.63.63,0,0,0-.1-.39.46.46,0,0,0-.36-.1,1.4,1.4,0,0,1-.38,0c-.06,0-.08-.08-.08-.15l0-.71a.32.32,0,0,1,0-.21.59.59,0,0,1,.27,0c.14,0,.21-.08.21-.2a1.19,1.19,0,0,0-.15-.36,1.89,1.89,0,0,1-.26-.92,1.43,1.43,0,0,1,.47-1.11,2.78,2.78,0,0,1,2-.63,2.65,2.65,0,0,1,1.69.49,1.14,1.14,0,0,1,.48.89.85.85,0,0,1-.24.61.82.82,0,0,1-.59.25,1.28,1.28,0,0,1-.77-.28c-.06-.05-.2-.2-.43-.44a.67.67,0,0,0-.47-.26.38.38,0,0,0-.38.39c0,.29.28.6.83.94a1.51,1.51,0,0,1,.35.25.72.72,0,0,1,.17.25s.08.06.17.06" transform="translate(-4.22 -4)"/><path class="cls-1" d="M75.74,65.3H73.12c-.11,0-.17,0-.17.15a.89.89,0,0,0,.39.68,1.29,1.29,0,0,0,.85.32,1.92,1.92,0,0,0,.59-.1,1.94,1.94,0,0,0,.54-.25.63.63,0,0,1,.3-.14.39.39,0,0,1,.28.18.55.55,0,0,1,.14.37,1,1,0,0,1-.5.77,3.27,3.27,0,0,1-2,.67,3,3,0,0,1-2-.68,2.89,2.89,0,0,1-1-2.14,2.71,2.71,0,0,1,.57-1.68,3.07,3.07,0,0,1,1.25-1,3.32,3.32,0,0,1,1.23-.23,2.77,2.77,0,0,1,1.8.6,2.39,2.39,0,0,1,.6.71,1.82,1.82,0,0,1,.26.92,1.05,1.05,0,0,1-.15.59.46.46,0,0,1-.39.23m-2.48-1h.57q.36,0,.36-.33a.73.73,0,0,0-.17-.49.59.59,0,0,0-.46-.19.58.58,0,0,0-.49.24.81.81,0,0,0-.16.47c0,.11,0,.19.08.23a.44.44,0,0,0,.27.07" transform="translate(-4.22 -4)"/><path class="cls-1" d="M82.53,60.52l-.07,2.18v.12c0,.07,0,.11.07.11s.1,0,.22-.15a2.21,2.21,0,0,1,1.44-.53,1.94,1.94,0,0,1,1.38.56,2.42,2.42,0,0,1,.75,1.84,3.18,3.18,0,0,1-1.21,2.6,3.14,3.14,0,0,1-2,.7,3.41,3.41,0,0,1-1-.15,4.49,4.49,0,0,1-1-.5.24.24,0,0,0-.14,0,1.49,1.49,0,0,0-.34.1.91.91,0,0,1-.35.06c-.22,0-.34-.08-.34-.23a.55.55,0,0,1,0-.16,4.66,4.66,0,0,0,.15-.9c0-.36,0-.92,0-1.7V62.89a3.11,3.11,0,0,0,0-.72.38.38,0,0,0-.25-.23,1.15,1.15,0,0,1-.4-.24.45.45,0,0,1-.11-.31c0-.24.27-.49.8-.73a7,7,0,0,1,1.08-.33,5,5,0,0,1,1.11-.14c.2,0,.3.11.29.33m.48,3.4a.47.47,0,0,0-.43.21,1.25,1.25,0,0,0-.11.63,11,11,0,0,0,.09,1.77A.45.45,0,0,0,83,67a.69.69,0,0,0,.62-.35,2,2,0,0,0,.22-1,2.33,2.33,0,0,0-.36-1.42.67.67,0,0,0-.5-.27" transform="translate(-4.22 -4)"/><path class="cls-1" d="M91.87,65.3H89.25c-.11,0-.17,0-.17.15a.89.89,0,0,0,.39.68,1.27,1.27,0,0,0,.85.32,2,2,0,0,0,.59-.1,1.94,1.94,0,0,0,.54-.25.56.56,0,0,1,.3-.14.41.41,0,0,1,.28.18.61.61,0,0,1,.14.37,1,1,0,0,1-.5.77,3.27,3.27,0,0,1-2,.67,2.93,2.93,0,0,1-2-.68,2.67,2.67,0,0,1-.63-.81,2.7,2.7,0,0,1-.33-1.33,2.65,2.65,0,0,1,.57-1.68,3,3,0,0,1,1.24-1,3.34,3.34,0,0,1,1.24-.23,2.77,2.77,0,0,1,1.8.6,2.39,2.39,0,0,1,.6.71,1.92,1.92,0,0,1,.26.92,1.05,1.05,0,0,1-.15.59.46.46,0,0,1-.39.23m-2.48-1H90q.36,0,.36-.33a.69.69,0,0,0-.18-.49.57.57,0,0,0-.45-.19.58.58,0,0,0-.49.24A.82.82,0,0,0,89,64a.26.26,0,0,0,.09.23.44.44,0,0,0,.27.07" transform="translate(-4.22 -4)"/><path class="cls-1" d="M96,63.71v1.88a.88.88,0,0,0,.17.55.51.51,0,0,0,.42.21,1.29,1.29,0,0,0,.57-.2.28.28,0,0,1,.17-.05.31.31,0,0,1,.25.16.66.66,0,0,1,.11.35.92.92,0,0,1-.38.67A2.92,2.92,0,0,1,95.4,68,2,2,0,0,1,94,67.44a1.73,1.73,0,0,1-.54-1.33V63.54c0-.09,0-.14,0-.16a.24.24,0,0,0-.15,0h-.58c-.11,0-.17,0-.2-.06a.38.38,0,0,1,0-.24V62.8a.27.27,0,0,1,.13-.24L95.09,61a.57.57,0,0,1,.24-.05h.45A.22.22,0,0,1,96,61s.05.12.05.25V62a.29.29,0,0,0,.06.22.35.35,0,0,0,.22.05h1c.14,0,.23,0,.27.07a.62.62,0,0,1,.06.33V63a.61.61,0,0,1-.08.36.32.32,0,0,1-.28.11h-1a.34.34,0,0,0-.21.05.3.3,0,0,0-.06.22" transform="translate(-4.22 -4)"/><path class="cls-1" d="M101.3,63.71v1.88a.88.88,0,0,0,.16.55.51.51,0,0,0,.42.21,1.26,1.26,0,0,0,.57-.2.3.3,0,0,1,.17-.05.31.31,0,0,1,.25.16.66.66,0,0,1,.11.35.89.89,0,0,1-.38.67,2.88,2.88,0,0,1-1.92.67,2,2,0,0,1-1.43-.51,1.73,1.73,0,0,1-.54-1.33V63.54c0-.09,0-.14,0-.16s-.07,0-.16,0H98q-.17,0-.21-.06s0-.11,0-.24V62.8a.26.26,0,0,1,.12-.24L100.38,61a.52.52,0,0,1,.23-.05h.45a.23.23,0,0,1,.19.07.44.44,0,0,1,0,.25V62a.35.35,0,0,0,0,.22.39.39,0,0,0,.23.05h1c.14,0,.22,0,.26.07a.52.52,0,0,1,.07.33V63a.61.61,0,0,1-.08.36.34.34,0,0,1-.29.11h-1a.21.21,0,0,0-.27.27" transform="translate(-4.22 -4)"/><path class="cls-1" d="M108.35,65.3h-2.62c-.12,0-.17,0-.17.15a.89.89,0,0,0,.39.68,1.27,1.27,0,0,0,.84.32,2,2,0,0,0,.6-.1,2.09,2.09,0,0,0,.54-.25.56.56,0,0,1,.3-.14.41.41,0,0,1,.28.18.61.61,0,0,1,.14.37,1,1,0,0,1-.5.77,3.28,3.28,0,0,1-2.05.67,2.92,2.92,0,0,1-2-.68,2.53,2.53,0,0,1-.63-.81,2.82,2.82,0,0,1-.33-1.33,2.7,2.7,0,0,1,.56-1.68,3.14,3.14,0,0,1,1.25-1,3.34,3.34,0,0,1,1.24-.23,2.79,2.79,0,0,1,1.8.6,2.39,2.39,0,0,1,.6.71,1.92,1.92,0,0,1,.26.92,1.05,1.05,0,0,1-.15.59.46.46,0,0,1-.39.23m-2.48-1h.57c.24,0,.35-.11.35-.33a.68.68,0,0,0-.17-.49.55.55,0,0,0-.45-.19.58.58,0,0,0-.49.24.82.82,0,0,0-.17.47.29.29,0,0,0,.08.23.5.5,0,0,0,.28.07" transform="translate(-4.22 -4)"/><path class="cls-1" d="M111.86,62.28a.55.55,0,0,1,.36.08,1.59,1.59,0,0,1,.11.54c0,.16.08.24.17.24s.15,0,.22-.16a1.33,1.33,0,0,1,1.16-.7,1.12,1.12,0,0,1,.83.33A1.43,1.43,0,0,1,115,63a1.48,1.48,0,0,1,.1.49,1.31,1.31,0,0,1-.12.53,1.45,1.45,0,0,1-.32.46,1.26,1.26,0,0,1-.88.34,1.14,1.14,0,0,1-.48-.1,2.64,2.64,0,0,1-.5-.41.33.33,0,0,0-.22-.12.2.2,0,0,0-.2.18,3.61,3.61,0,0,0,0,.74,7.22,7.22,0,0,0,.06,1.15.54.54,0,0,0,.11.23,1.12,1.12,0,0,0,.3.13c.34.1.5.28.5.52a.54.54,0,0,1-.16.4.78.78,0,0,1-.43.23,8.69,8.69,0,0,1-1.57.11,5.13,5.13,0,0,1-1.5-.17c-.31-.11-.46-.29-.46-.54a.62.62,0,0,1,.34-.52.9.9,0,0,0,.22-.19.52.52,0,0,0,.08-.24,12.78,12.78,0,0,0,.09-1.88.78.78,0,0,0-.06-.36.38.38,0,0,0-.22-.18q-.39-.15-.39-.45a.56.56,0,0,1,.27-.46,3.8,3.8,0,0,1,.91-.38,5.36,5.36,0,0,1,1.47-.26" transform="translate(-4.22 -4)"/><path class="cls-1" d="M121.49,63.28h.7a.48.48,0,0,1,.24,0,.19.19,0,0,1,.07.18l0,.66a.38.38,0,0,1-.06.26.35.35,0,0,1-.22,0h-.35a.34.34,0,0,0-.32.16,1.45,1.45,0,0,0-.08.58,3.17,3.17,0,0,0,.13,1,.5.5,0,0,0,.14.25.9.9,0,0,0,.31.14c.33.1.49.28.49.54s-.19.48-.57.61a6.9,6.9,0,0,1-1.87.18c-1.29,0-1.94-.26-1.94-.77a.44.44,0,0,1,.08-.28,1.36,1.36,0,0,1,.35-.21.59.59,0,0,0,.36-.49A7.13,7.13,0,0,0,119,65a.64.64,0,0,0-.09-.39.45.45,0,0,0-.36-.1,1.46,1.46,0,0,1-.38,0,.15.15,0,0,1-.08-.15l0-.71a.31.31,0,0,1,.06-.21.54.54,0,0,1,.26,0c.14,0,.21-.08.21-.2a1.19,1.19,0,0,0-.15-.36,1.79,1.79,0,0,1-.26-.92,1.43,1.43,0,0,1,.47-1.11,2.81,2.81,0,0,1,2-.63,2.64,2.64,0,0,1,1.68.49,1.14,1.14,0,0,1,.48.89.89.89,0,0,1-.23.61.84.84,0,0,1-.6.25,1.28,1.28,0,0,1-.77-.28c-.06-.05-.2-.2-.42-.44a.7.7,0,0,0-.48-.26.38.38,0,0,0-.38.39c0,.29.28.6.83.94a1.31,1.31,0,0,1,.35.25.72.72,0,0,1,.17.25s.08.06.17.06" transform="translate(-4.22 -4)"/><path class="cls-1" d="M126.32,62.24a3.12,3.12,0,0,1,1.79.53,2.81,2.81,0,0,1,.88,1,2.72,2.72,0,0,1,.35,1.32,2.51,2.51,0,0,1-1.11,2.06,3.9,3.9,0,0,1-2.42.81,3,3,0,0,1-2.16-.76,2.47,2.47,0,0,1-.81-1.92,2.71,2.71,0,0,1,1-2.15,3.76,3.76,0,0,1,2.5-.88m-.45,1.29a.48.48,0,0,0-.39.18.73.73,0,0,0-.15.48,4.17,4.17,0,0,0,.13.91,6.65,6.65,0,0,0,.29,1,.6.6,0,0,0,.57.46c.33,0,.49-.21.49-.63a5.46,5.46,0,0,0-.12-1.06,5.37,5.37,0,0,0-.3-1,.6.6,0,0,0-.52-.39" transform="translate(-4.22 -4)"/><path class="cls-1" d="M132.34,62.28c.2,0,.32,0,.36.08a1.77,1.77,0,0,1,.12.54c0,.16.07.24.17.24a.26.26,0,0,0,.21-.16,1.36,1.36,0,0,1,1.17-.7,1.12,1.12,0,0,1,.83.33,1.43,1.43,0,0,1,.26.42,1.46,1.46,0,0,1,.09.49,1.16,1.16,0,0,1-.12.53,1.43,1.43,0,0,1-.31.46,1.26,1.26,0,0,1-.88.34,1.14,1.14,0,0,1-.48-.1,2.36,2.36,0,0,1-.5-.41.33.33,0,0,0-.22-.12c-.11,0-.17.06-.2.18a3.61,3.61,0,0,0-.05.74,7.22,7.22,0,0,0,.06,1.15.54.54,0,0,0,.11.23,1.12,1.12,0,0,0,.3.13c.33.1.5.28.5.52a.58.58,0,0,1-.16.4.78.78,0,0,1-.43.23,8.69,8.69,0,0,1-1.57.11,5.13,5.13,0,0,1-1.5-.17c-.31-.11-.46-.29-.46-.54a.63.63,0,0,1,.33-.52,1,1,0,0,0,.23-.19.52.52,0,0,0,.08-.24,12.78,12.78,0,0,0,.09-1.88,1,1,0,0,0-.05-.36.49.49,0,0,0-.23-.18q-.39-.15-.39-.45a.56.56,0,0,1,.27-.46,3.8,3.8,0,0,1,.91-.38,5.36,5.36,0,0,1,1.46-.26" transform="translate(-4.22 -4)"/><path class="cls-1" d="M142.08,60a5.45,5.45,0,0,1,1.5.29l.18,0a1.49,1.49,0,0,0,.34-.1.52.52,0,0,1,.18,0c.25,0,.52.19.79.59a1.93,1.93,0,0,1,.42,1.12.75.75,0,0,1-.19.53.55.55,0,0,1-.45.22.81.81,0,0,1-.37-.09c-.09-.07-.29-.24-.61-.53a1.94,1.94,0,0,0-1.31-.63.76.76,0,0,0-.5.15.48.48,0,0,0-.19.4c0,.32.29.56.86.73a12.36,12.36,0,0,1,1.47.49,2.19,2.19,0,0,1,1.42,2,2.34,2.34,0,0,1-1,1.94,4.11,4.11,0,0,1-2.59.77,7.34,7.34,0,0,1-1.5-.17,3.64,3.64,0,0,1-1.15-.4,1.53,1.53,0,0,1-.48-.78,3.53,3.53,0,0,1-.21-1.17.63.63,0,0,1,.11-.41.42.42,0,0,1,.35-.18.6.6,0,0,1,.41.22,8.9,8.9,0,0,1,.55.79,1.5,1.5,0,0,0,.65.51,2.18,2.18,0,0,0,.93.21,1.3,1.3,0,0,0,.67-.15.45.45,0,0,0,.26-.39.5.5,0,0,0-.2-.39,2,2,0,0,0-.66-.3,9,9,0,0,1-1.21-.46,3.36,3.36,0,0,1-.78-.53,2.31,2.31,0,0,1-.88-1.77,2.17,2.17,0,0,1,.22-1,2.49,2.49,0,0,1,.65-.8,3.43,3.43,0,0,1,2.29-.79" transform="translate(-4.22 -4)"/><path class="cls-1" d="M149.37,63.71v1.88a.88.88,0,0,0,.16.55.51.51,0,0,0,.42.21,1.33,1.33,0,0,0,.58-.2.25.25,0,0,1,.16-.05.29.29,0,0,1,.25.16.66.66,0,0,1,.11.35.89.89,0,0,1-.38.67,2.89,2.89,0,0,1-1.91.67,2,2,0,0,1-1.44-.51,1.73,1.73,0,0,1-.54-1.33V63.54c0-.09,0-.14,0-.16s-.07,0-.16,0H146q-.17,0-.21-.06s0-.11,0-.24V62.8a.25.25,0,0,1,.13-.24L148.45,61a.52.52,0,0,1,.23-.05h.45a.23.23,0,0,1,.19.07.44.44,0,0,1,.05.25V62a.35.35,0,0,0,0,.22.39.39,0,0,0,.23.05h1a.37.37,0,0,1,.27.07.62.62,0,0,1,.06.33V63a.61.61,0,0,1-.08.36.33.33,0,0,1-.28.11h-1a.32.32,0,0,0-.21.05.3.3,0,0,0-.06.22" transform="translate(-4.22 -4)"/><path class="cls-1" d="M154.4,62.56v3c0,.65.21,1,.64,1a.65.65,0,0,0,.32-.09.55.55,0,0,0,.21-.22,3.33,3.33,0,0,0,.13-1.2,7.06,7.06,0,0,0-.07-1.25.42.42,0,0,0-.07-.2,1.16,1.16,0,0,0-.21-.15A.49.49,0,0,1,155,63q0-.35.54-.48a8.66,8.66,0,0,1,2.05-.26q.57,0,.57.6s0,.13,0,.25,0,.4,0,.65v2.46c0,.13.11.25.32.35a.42.42,0,0,1,.28.39c0,.33-.4.59-1.19.77a5.81,5.81,0,0,1-1.35.17.7.7,0,0,1-.36-.07.28.28,0,0,1-.12-.24c0-.23-.09-.34-.21-.34a.24.24,0,0,0-.12,0l-.34.22a2.1,2.1,0,0,1-1.21.39,1.73,1.73,0,0,1-1.52-.62,3.16,3.16,0,0,1-.37-1.75c0-.3,0-.56,0-.78v-.25a2.07,2.07,0,0,0-.09-.71.7.7,0,0,0-.31-.35,1,1,0,0,1-.28-.18.24.24,0,0,1-.06-.18c0-.28.22-.47.65-.57a10.7,10.7,0,0,1,2.18-.24c.22,0,.33.1.33.28" transform="translate(-4.22 -4)"/><path class="cls-1" d="M165.6,60.63v5.09a3.1,3.1,0,0,0,0,.56.57.57,0,0,0,.21.24,1.37,1.37,0,0,1,.27.25.49.49,0,0,1,.07.25q0,.45-.9.69a6.91,6.91,0,0,1-1.62.2.39.39,0,0,1-.23,0,.64.64,0,0,1-.07-.26c0-.19-.08-.28-.2-.28a.53.53,0,0,0-.29.17,2,2,0,0,1-1.27.46,2.22,2.22,0,0,1-1.55-.64,3,3,0,0,1-.66-.89,2.91,2.91,0,0,1-.34-1.32,3,3,0,0,1,.44-1.52,2.79,2.79,0,0,1,1.09-1,2.47,2.47,0,0,1,1.14-.29,2.25,2.25,0,0,1,1.16.29l.13,0c.13,0,.19-.16.19-.48a.51.51,0,0,0-.1-.32.81.81,0,0,0-.35-.18c-.23-.07-.35-.2-.35-.39s.27-.48.8-.64a9.27,9.27,0,0,1,1.92-.39q.48,0,.48.45m-3,2.81a.64.64,0,0,0-.57.38,2.81,2.81,0,0,0-.29,1.35,1.88,1.88,0,0,0,.28,1.14.6.6,0,0,0,.53.28.55.55,0,0,0,.52-.42,4.05,4.05,0,0,0,.16-1.36,2.25,2.25,0,0,0-.19-1.14.51.51,0,0,0-.44-.23" transform="translate(-4.22 -4)"/><path class="cls-1" d="M171.66,65.3H169q-.18,0-.18.15a.87.87,0,0,0,.4.68,1.27,1.27,0,0,0,.84.32,2,2,0,0,0,.6-.1,2,2,0,0,0,.53-.25.63.63,0,0,1,.3-.14.41.41,0,0,1,.29.18.61.61,0,0,1,.14.37,1,1,0,0,1-.5.77,3.3,3.3,0,0,1-2.05.67,2.92,2.92,0,0,1-2-.68,2.7,2.7,0,0,1-.64-.81,2.81,2.81,0,0,1-.32-1.33,2.65,2.65,0,0,1,.57-1.68,3,3,0,0,1,1.24-1,3.32,3.32,0,0,1,1.23-.23,2.75,2.75,0,0,1,1.8.6,2.59,2.59,0,0,1,.61.71,1.92,1.92,0,0,1,.26.92,1.05,1.05,0,0,1-.15.59.46.46,0,0,1-.39.23m-2.48-1h.57c.23,0,.35-.11.35-.33a.73.73,0,0,0-.17-.49.58.58,0,0,0-.45-.19.58.58,0,0,0-.49.24.82.82,0,0,0-.17.47.29.29,0,0,0,.08.23.47.47,0,0,0,.28.07" transform="translate(-4.22 -4)"/><path class="cls-1" d="M179.32,64.3l.08,2a.76.76,0,0,0,.07.32,2.7,2.7,0,0,0,.34.41.33.33,0,0,1,.09.25c0,.25-.15.42-.44.52a6.17,6.17,0,0,1-1.58.14,3.05,3.05,0,0,1-1.08-.13.49.49,0,0,1-.34-.46.31.31,0,0,1,0-.16,2.24,2.24,0,0,1,.23-.26,3.08,3.08,0,0,0,.22-1.56,2.72,2.72,0,0,0-.18-1.14.53.53,0,0,0-.54-.29.55.55,0,0,0-.51.24,1.91,1.91,0,0,0-.14.86v1.11a2,2,0,0,0,0,.45,3,3,0,0,0,.28.48.41.41,0,0,1,.06.23c0,.21-.15.38-.46.48a4.83,4.83,0,0,1-1.42.16c-1,0-1.55-.22-1.55-.64a.37.37,0,0,1,0-.21,1.33,1.33,0,0,1,.23-.2.41.41,0,0,0,.18-.24,4.52,4.52,0,0,0,.08-.67c0-.42,0-.87,0-1.33a1.63,1.63,0,0,0-.06-.51,1,1,0,0,0-.34-.29.43.43,0,0,1-.24-.37.44.44,0,0,1,.19-.37,4,4,0,0,1,.81-.35,10,10,0,0,1,1-.32,3.31,3.31,0,0,1,.68-.14.39.39,0,0,1,.28.13.4.4,0,0,1,.12.29,1.13,1.13,0,0,0,0,.14v.08c0,.17.07.26.22.26s.18-.07.28-.21a1.59,1.59,0,0,1,1.4-.69,2,2,0,0,1,1.2.37,1.42,1.42,0,0,1,.49.61,3.48,3.48,0,0,1,.17,1" transform="translate(-4.22 -4)"/><path class="cls-1" d="M183.53,63.71v1.88a.88.88,0,0,0,.17.55.51.51,0,0,0,.42.21,1.29,1.29,0,0,0,.57-.2.28.28,0,0,1,.17-.05.29.29,0,0,1,.24.16.58.58,0,0,1,.11.35.91.91,0,0,1-.37.67,2.92,2.92,0,0,1-1.92.67,2,2,0,0,1-1.43-.51,1.73,1.73,0,0,1-.54-1.33V63.54c0-.09,0-.14,0-.16a.3.3,0,0,0-.16,0h-.58a.28.28,0,0,1-.21-.06.51.51,0,0,1,0-.24V62.8a.27.27,0,0,1,.13-.24L182.61,61a.54.54,0,0,1,.24-.05h.45a.22.22,0,0,1,.18.07s.05.12.05.25V62a.29.29,0,0,0,.06.22.35.35,0,0,0,.22.05h1c.14,0,.23,0,.27.07a.62.62,0,0,1,.06.33V63a.61.61,0,0,1-.08.36.32.32,0,0,1-.28.11h-1a.34.34,0,0,0-.21.05.3.3,0,0,0-.06.22" transform="translate(-4.22 -4)"/><path class="cls-1" d="M187.74,62.25a5.76,5.76,0,0,1,.91.12l.21,0a1.23,1.23,0,0,0,.36-.1.74.74,0,0,1,.22,0,.72.72,0,0,1,.52.33,2.05,2.05,0,0,1,.34.57,1.27,1.27,0,0,1,.14.55.45.45,0,0,1-.16.36.52.52,0,0,1-.38.15.71.71,0,0,1-.36-.09,4.5,4.5,0,0,1-.49-.42,1,1,0,0,0-.59-.35.37.37,0,0,0-.27.12.37.37,0,0,0-.11.27c0,.18.17.35.52.51a4.59,4.59,0,0,1,1.44.93,1.38,1.38,0,0,1,.43,1,1.59,1.59,0,0,1-.68,1.3,2.29,2.29,0,0,1-1.44.45c-.14,0-.41,0-.79-.07l-.6-.07-.17,0a1.25,1.25,0,0,1-.24,0,.59.59,0,0,1-.41-.13,2,2,0,0,1-.42-.65,2,2,0,0,1-.2-.76c0-.34.14-.51.4-.51a.45.45,0,0,1,.29.1,6.55,6.55,0,0,1,.55.55,2.52,2.52,0,0,0,.38.34.62.62,0,0,0,.32.09.44.44,0,0,0,.3-.1.33.33,0,0,0,.11-.26c0-.17-.14-.32-.43-.45a4.06,4.06,0,0,1-1.3-.92,1.62,1.62,0,0,1-.39-1.07,1.71,1.71,0,0,1,.4-1.15,2,2,0,0,1,1.59-.68" transform="translate(-4.22 -4)"/><path class="cls-1" d="M195.78,4V7.93a2.32,2.32,0,0,1-.95,1.94,4.31,4.31,0,0,1-2.08.75V9.19a1.64,1.64,0,0,0,.88-.35A1,1,0,0,0,194,8V7.3h-1.38V4Z" transform="translate(-4.22 -4)"/></svg>